<?xml version="1.0" standalone="no"?>
<!DOCTYPE svg PUBLIC "-//W3C//DTD SVG 20010904//EN"
 "http://www.w3.org/TR/2001/REC-SVG-20010904/DTD/svg10.dtd">
<svg version="1.0" xmlns="http://www.w3.org/2000/svg"
 width="200.000000pt" height="200.000000pt" viewBox="0 0 200.000000 200.000000"
 preserveAspectRatio="xMidYMid meet">

<g transform="translate(0.000000,200.000000) scale(0.100000,-0.100000)"
fill="#000000" stroke="none">
<path d="M926 1900 c-130 -23 -211 -64 -306 -156 l-65 -63 -177 -3 c-197 -3
-211 -8 -253 -79 -19 -33 -20 -52 -20 -549 0 -582 -2 -565 78 -618 l40 -27
270 -3 270 -3 -7 -47 c-4 -26 -9 -73 -13 -104 l-6 -58 -68 0 c-37 0 -74 -3
-83 -6 -20 -8 -21 -38 0 -58 13 -14 66 -16 423 -16 423 0 431 1 431 42 0 26
-32 38 -103 38 l-64 0 -11 94 c-7 52 -12 100 -12 105 0 8 83 11 258 11 228 0
262 3 297 19 48 22 69 44 90 94 13 31 15 108 15 529 0 458 -2 496 -19 533 -21
46 -54 79 -94 94 -16 6 -99 11 -187 11 l-159 0 -65 63 c-120 119 -310 183
-460 157z m154 -106 c34 -31 98 -139 88 -149 -9 -10 -185 -17 -252 -10 l-76 7
16 36 c38 93 99 152 156 152 18 0 42 -13 68 -36z m243 -85 l41 -36 -59 -11
c-32 -7 -59 -11 -60 -9 -5 7 -65 140 -65 144 0 10 106 -54 143 -88z m-528 20
c-14 -30 -25 -60 -25 -68 0 -10 -11 -12 -47 -6 -66 10 -69 13 -36 47 26 28
124 91 130 84 2 -2 -8 -27 -22 -57z m-290 -141 c-39 -122 -46 -166 -42 -253
12 -208 124 -376 312 -467 291 -140 624 -3 746 307 20 51 23 78 23 180 0 106
-3 128 -26 188 l-27 67 139 0 c134 0 139 -1 169 -26 l31 -26 0 -424 0 -424
-825 0 -825 0 0 418 c0 367 2 420 16 440 25 36 48 41 188 41 l128 1 -7 -22z
m229 -87 c-3 -42 -7 -82 -9 -88 -3 -9 -31 -13 -95 -13 -87 0 -90 1 -90 23 0
34 27 117 49 153 l19 32 66 -16 66 -16 -6 -75z m701 55 c13 -29 28 -77 33
-105 l9 -51 -93 0 c-51 0 -95 3 -97 8 -3 4 -8 43 -11 88 l-7 81 68 15 c37 9
69 16 71 17 2 0 14 -23 27 -53z m-240 -4 c3 -8 8 -45 11 -83 l7 -69 -208 0
-208 0 6 60 c13 116 -9 105 202 105 145 0 186 -3 190 -13z m-465 -279 c1 -27
4 -67 9 -89 l8 -42 -60 -12 c-32 -6 -65 -14 -73 -17 -18 -7 -63 93 -71 159
l-6 48 97 0 96 0 0 -47z m477 -13 c-13 -116 9 -105 -202 -105 -130 0 -186 3
-189 11 -3 7 -8 44 -12 83 l-7 71 208 0 208 0 -6 -60z m259 14 c-6 -46 -53
-164 -65 -164 -3 0 -22 4 -41 9 -19 5 -48 12 -63 15 l-28 7 6 77 c4 42 8 83
10 90 3 8 31 12 96 12 l92 0 -7 -46z m-307 -221 c-20 -54 -60 -113 -93 -138
-72 -55 -144 -19 -200 99 -14 30 -26 57 -26 60 0 3 74 6 165 6 l165 0 -11 -27z
m-359 -58 c32 -68 34 -74 15 -69 -48 14 -167 105 -154 118 3 3 73 21 99 25 3
0 21 -33 40 -74z m534 55 c16 -5 12 -12 -27 -46 -24 -21 -63 -50 -86 -63 l-42
-23 19 38 c11 22 27 56 35 76 15 35 18 37 49 31 18 -3 41 -9 52 -13z m-148
-740 c7 -47 13 -93 13 -102 1 -17 -15 -18 -195 -18 l-196 0 6 28 c2 15 7 50
11 77 3 28 8 62 11 78 l6 27 166 -2 167 -3 11 -85z"/>
</g>
</svg>
